<svg width="66" height="66" viewBox="0 0 66 66" fill="none" xmlns="http://www.w3.org/2000/svg">
<path d="M59.1357 36.0955C58.7439 35.7717 58.2691 35.5644 57.7654 35.4972C57.2616 35.43 56.7491 35.5057 56.2862 35.7155C53.4166 37.0287 50.2965 37.7046 47.1407 37.6966C41.3029 37.6896 35.7047 35.3748 31.5666 31.2571C27.4285 27.1393 25.0862 21.5525 25.0504 15.7149C25.0628 13.8853 25.2905 12.0636 25.7289 10.2873C25.8219 9.81382 25.787 9.32413 25.6278 8.86865C25.4686 8.41317 25.1908 8.00837 24.8231 7.69596C24.4554 7.38355 24.011 7.17482 23.5358 7.09128C23.0606 7.00774 22.5717 7.05241 22.1195 7.22069C17.8652 9.13366 14.1669 12.0967 11.3722 15.8315C8.57752 19.5663 6.77809 23.9502 6.14298 28.5714C5.50787 33.1926 6.05792 37.8995 7.74146 42.2497C9.425 46.6 12.1868 50.4508 15.7673 53.4406C19.3479 56.4304 23.6297 58.4609 28.2105 59.3413C32.7913 60.2218 37.5207 59.9234 41.9545 58.474C46.3883 57.0247 50.3809 54.4721 53.5572 51.056C56.7335 47.6398 58.9893 43.4723 60.1126 38.945C60.2495 38.4266 60.2297 37.8793 60.0558 37.3722C59.8819 36.8651 59.5618 36.4208 59.1357 36.0955ZM33.3546 54.2508C28.8002 54.2186 24.3671 52.7795 20.6622 50.1305C16.9573 47.4815 14.1617 43.752 12.6584 39.4528C11.155 35.1535 11.0172 30.4947 12.2639 26.1141C13.5106 21.7336 16.0809 17.8455 19.6228 14.9821V15.7149C19.63 23.0109 22.5315 30.006 27.6905 35.165C32.8496 40.3241 39.8447 43.2256 47.1407 43.2328C49.0563 43.2398 50.9671 43.0396 52.8397 42.6357C50.9669 46.1786 48.1624 49.143 44.7286 51.209C41.2948 53.275 37.362 54.3643 33.3546 54.3593V54.2508Z" fill="#161E2E"/>
</svg>
