<svg width="66" height="66" viewBox="0 0 66 66" fill="none" xmlns="http://www.w3.org/2000/svg">
<path d="M14.3926 33.3101C14.3926 32.5903 14.1067 31.9001 13.5978 31.3911C13.0888 30.8822 12.3986 30.5963 11.6788 30.5963H8.96502C8.24527 30.5963 7.55501 30.8822 7.04607 31.3911C6.53714 31.9001 6.25122 32.5903 6.25122 33.3101C6.25122 34.0298 6.53714 34.7201 7.04607 35.229C7.55501 35.7379 8.24527 36.0239 8.96502 36.0239H11.6788C12.3986 36.0239 13.0888 35.7379 13.5978 35.229C14.1067 34.7201 14.3926 34.0298 14.3926 33.3101ZM16.1294 46.879L14.2026 48.8058C13.6972 49.3143 13.4135 50.0021 13.4135 50.7191C13.4135 51.436 13.6972 52.1238 14.2026 52.6323C14.7111 53.1377 15.3989 53.4214 16.1159 53.4214C16.8328 53.4214 17.5206 53.1377 18.0291 52.6323L19.9559 50.7055C20.4005 50.1863 20.6328 49.5185 20.6064 48.8355C20.58 48.1526 20.2969 47.5047 19.8136 47.0214C19.3303 46.538 18.6824 46.2549 17.9994 46.2285C17.3164 46.2021 16.6486 46.4345 16.1294 46.879ZM33.3892 14.3135C34.1089 14.3135 34.7992 14.0276 35.3081 13.5187C35.8171 13.0097 36.103 12.3195 36.103 11.5997V8.88591C36.103 8.16617 35.8171 7.47591 35.3081 6.96697C34.7992 6.45804 34.1089 6.17212 33.3892 6.17212C32.6694 6.17212 31.9792 6.45804 31.4702 6.96697C30.9613 7.47591 30.6754 8.16617 30.6754 8.88591V11.5997C30.6754 12.3195 30.9613 13.0097 31.4702 13.5187C31.9792 14.0276 32.6694 14.3135 33.3892 14.3135ZM48.7493 20.6638C49.4612 20.6608 50.1434 20.3781 50.6489 19.8768L52.5757 17.95C52.8598 17.7067 53.0905 17.4073 53.2534 17.0706C53.4163 16.734 53.5078 16.3672 53.5223 15.9935C53.5367 15.6197 53.4737 15.2471 53.3373 14.8988C53.2009 14.5506 52.9939 14.2343 52.7294 13.9698C52.465 13.7053 52.1487 13.4984 51.8004 13.3619C51.4522 13.2255 51.0795 13.1625 50.7058 13.177C50.332 13.1914 49.9653 13.2829 49.6286 13.4458C49.2919 13.6087 48.9925 13.8395 48.7493 14.1235L46.9581 16.0503C46.4527 16.5588 46.169 17.2466 46.169 17.9636C46.169 18.6805 46.4527 19.3683 46.9581 19.8768C47.4366 20.3527 48.0751 20.6333 48.7493 20.6638ZM16.1837 19.8768C16.6892 20.3781 17.3714 20.6608 18.0834 20.6638C18.4405 20.6659 18.7946 20.5974 19.1252 20.4623C19.4559 20.3273 19.7566 20.1283 20.0102 19.8768C20.5156 19.3683 20.7993 18.6805 20.7993 17.9636C20.7993 17.2466 20.5156 16.5588 20.0102 16.0503L18.0834 14.1235C17.8321 13.8687 17.5331 13.6659 17.2035 13.5266C16.8739 13.3874 16.52 13.3144 16.1622 13.3119C15.8044 13.3093 15.4495 13.3773 15.118 13.5119C14.7864 13.6466 14.4846 13.8452 14.2298 14.0964C13.975 14.3476 13.7721 14.6466 13.6329 14.9763C13.4936 15.3059 13.4206 15.6597 13.4181 16.0176C13.413 16.7403 13.6952 17.4354 14.2026 17.95L16.1837 19.8768ZM57.8133 30.5963H55.0995C54.3798 30.5963 53.6895 30.8822 53.1806 31.3911C52.6717 31.9001 52.3857 32.5903 52.3857 33.3101C52.3857 34.0298 52.6717 34.7201 53.1806 35.229C53.6895 35.7379 54.3798 36.0239 55.0995 36.0239H57.8133C58.5331 36.0239 59.2233 35.7379 59.7323 35.229C60.2412 34.7201 60.5271 34.0298 60.5271 33.3101C60.5271 32.5903 60.2412 31.9001 59.7323 31.3911C59.2233 30.8822 58.5331 30.5963 57.8133 30.5963ZM50.6489 46.879C50.1333 46.5923 49.5383 46.4813 48.954 46.563C48.3697 46.6447 47.828 46.9145 47.4108 47.3317C46.9936 47.7489 46.7238 48.2906 46.6421 48.8749C46.5604 49.4592 46.6714 50.0542 46.9581 50.5698L48.8849 52.4966C49.3934 53.002 50.0812 53.2858 50.7982 53.2858C51.5151 53.2858 52.2029 53.002 52.7114 52.4966C53.2168 51.9881 53.5005 51.3003 53.5005 50.5834C53.5005 49.8664 53.2168 49.1786 52.7114 48.6702L50.6489 46.879ZM33.3892 18.3842C30.4371 18.3842 27.5513 19.2596 25.0968 20.8997C22.6423 22.5397 20.7292 24.8708 19.5995 27.5982C18.4698 30.3255 18.1742 33.3266 18.7501 36.222C19.326 39.1173 20.7476 41.7768 22.835 43.8643C24.9224 45.9517 27.5819 47.3732 30.4773 47.9492C33.3726 48.5251 36.3737 48.2295 39.1011 47.0998C41.8284 45.9701 44.1595 44.057 45.7996 41.6024C47.4397 39.1479 48.315 36.2621 48.315 33.3101C48.3079 29.3537 46.733 25.5614 43.9354 22.7638C41.1378 19.9662 37.3456 18.3914 33.3892 18.3842ZM33.3892 42.8084C31.5106 42.8084 29.6742 42.2513 28.1122 41.2076C26.5502 40.1639 25.3328 38.6805 24.6139 36.9449C23.895 35.2093 23.7069 33.2995 24.0734 31.457C24.4399 29.6146 25.3445 27.9221 26.6729 26.5938C28.0012 25.2654 29.6937 24.3608 31.5361 23.9943C33.3786 23.6278 35.2884 23.8159 37.024 24.5348C38.7596 25.2537 40.243 26.4711 41.2867 28.0331C42.3304 29.5951 42.8875 31.4315 42.8875 33.3101C42.8875 35.8292 41.8867 38.2451 40.1055 40.0264C38.3242 41.8076 35.9083 42.8084 33.3892 42.8084ZM33.3892 52.3066C32.6694 52.3066 31.9792 52.5926 31.4702 53.1015C30.9613 53.6104 30.6754 54.3007 30.6754 55.0204V57.7342C30.6754 58.454 30.9613 59.1442 31.4702 59.6532C31.9792 60.1621 32.6694 60.448 33.3892 60.448C34.1089 60.448 34.7992 60.1621 35.3081 59.6532C35.8171 59.1442 36.103 58.454 36.103 57.7342V55.0204C36.103 54.3007 35.8171 53.6104 35.3081 53.1015C34.7992 52.5926 34.1089 52.3066 33.3892 52.3066Z" fill="black"/>
</svg>
